<svg width="248" height="245" viewBox="0 0 248 245" fill="none" xmlns="http://www.w3.org/2000/svg">
<path d="M213.101 149.296C198.115 198.221 145.893 225.917 96.399 211.042C46.9047 196.168 19.0225 144.399 34.0081 95.474C48.9938 46.5488 101.216 18.8532 150.71 33.7275C200.204 48.6017 228.087 100.371 213.101 149.296Z" stroke="#F98152" stroke-width="10.9593"/>
<ellipse cx="7.56115" cy="17.731" rx="7.56115" ry="17.731" transform="matrix(0.957688 0.287809 -0.292867 0.956153 101.706 71.6696)" fill="#F98152"/>
<ellipse cx="7.56115" cy="17.731" rx="7.56115" ry="17.731" transform="matrix(0.957688 0.287809 -0.292867 0.956153 155.686 87.892)" fill="#F98152"/>
<path d="M180.685 142.403C170.978 174.093 137.173 191.989 105.18 182.375C73.186 172.76 55.1188 139.275 64.8257 107.584" stroke="#F98152" stroke-width="10.9593"/>
</svg>
